# xmcd
#
# Track frame offsets:
#	183
#	12823
#	27845
#	40693
#	50673
#	61553
#	74455
#	87308
#	99445
#	109205
#	121798
#	131623
#	142940
#	153458
#	164408
#	178923
#
# Disc length: 2487
#
# Revision: 5
# Processed by: cddbd v1.5.1PL0 Copyright (c) Steve Scherf et al.
# Submitted via: CDex 1.50
# Normalized: r4:DSETVAR1,TDELIM( - )
#
DISCID=cf09b510
DTITLE=Various Artist - Country Show - Volume 1
DYEAR=1900
DGENRE=Country
TTITLE0=Johnny Cash - Folsom Prison Blues
TTITLE1=Kenny Rogers - For The Good Times
TTITLE2=Oak Ridge Boys - The Old Country Church
TTITLE3=Dolly Parton - Release Me
TTITLE4=Johnny Cash - I Love You Because
TTITLE5=Oak Ridge Boys - Dear Jesus Abide With Me
TTITLE6=Kenny Rogers - Ruby, Dont Take Your Love To Town
TTITLE7=Dolly Parton - Two Little Orphans
TTITLE8=Johnny Cash - Ballad Of A Teenage Queen
TTITLE9=Oak Ridge Boys - Thank God I'm Reborn
TTITLE10=Johnny Cash - Rock Island Line
TTITLE11=Dolly Parton - Makin' Believe
TTITLE12=Kenny Rogers - She Even Woke Me Up To Say Goodbye
TTITLE13=Oak Ridge Boys - I'll Wake Up To The Other Side
TTITLE14=Kenny Rogers - Hear The Call
TTITLE15=Johnny Cash - Hey Good Lookin'
EXTD=
EXTT0=
EXTT1=
EXTT2=
EXTT3=
EXTT4=
EXTT5=
EXTT6=
EXTT7=
EXTT8=
EXTT9=
EXTT10=
EXTT11=
EXTT12=
EXTT13=
EXTT14=
EXTT15=
PLAYORDER=
